<mxfile host="app.diagrams.net" agent="Mozilla/5.0 (Windows NT 10.0; Win64; x64) AppleWebKit/537.36 (KHTML, like Gecko) Chrome/131.0.0.0 Safari/537.36" version="25.0.3">
  <diagram id="x9fWYTSdlSlbeCVXr4Ym" name="페이지-1">
    <mxGraphModel dx="944" dy="1782" grid="1" gridSize="10" guides="1" tooltips="1" connect="1" arrows="1" fold="1" page="1" pageScale="1" pageWidth="827" pageHeight="1169" math="0" shadow="0">
      <root>
        <mxCell id="0" />
        <mxCell id="1" parent="0" />
        <mxCell id="jXWk1P5DwBrlVbLdEill-56" value="" style="rounded=0;whiteSpace=wrap;html=1;strokeColor=none;" vertex="1" parent="1">
          <mxGeometry x="65" y="320" width="845" height="190" as="geometry" />
        </mxCell>
        <mxCell id="jXWk1P5DwBrlVbLdEill-1" value="#" style="rounded=1;whiteSpace=wrap;html=1;" vertex="1" parent="1">
          <mxGeometry x="80" y="450" width="40" height="30" as="geometry" />
        </mxCell>
        <mxCell id="jXWk1P5DwBrlVbLdEill-2" value="#" style="rounded=1;whiteSpace=wrap;html=1;" vertex="1" parent="1">
          <mxGeometry x="130" y="450" width="40" height="30" as="geometry" />
        </mxCell>
        <mxCell id="jXWk1P5DwBrlVbLdEill-3" value="#" style="rounded=1;whiteSpace=wrap;html=1;" vertex="1" parent="1">
          <mxGeometry x="180" y="450" width="40" height="30" as="geometry" />
        </mxCell>
        <mxCell id="jXWk1P5DwBrlVbLdEill-4" value="." style="rounded=1;whiteSpace=wrap;html=1;" vertex="1" parent="1">
          <mxGeometry x="230" y="450" width="40" height="30" as="geometry" />
        </mxCell>
        <mxCell id="jXWk1P5DwBrlVbLdEill-5" value="#" style="rounded=1;whiteSpace=wrap;html=1;" vertex="1" parent="1">
          <mxGeometry x="280" y="450" width="40" height="30" as="geometry" />
        </mxCell>
        <mxCell id="jXWk1P5DwBrlVbLdEill-6" value="#" style="rounded=1;whiteSpace=wrap;html=1;" vertex="1" parent="1">
          <mxGeometry x="330" y="450" width="40" height="30" as="geometry" />
        </mxCell>
        <mxCell id="jXWk1P5DwBrlVbLdEill-13" value="#" style="rounded=1;whiteSpace=wrap;html=1;" vertex="1" parent="1">
          <mxGeometry x="380" y="450" width="40" height="30" as="geometry" />
        </mxCell>
        <mxCell id="jXWk1P5DwBrlVbLdEill-14" value="." style="rounded=1;whiteSpace=wrap;html=1;" vertex="1" parent="1">
          <mxGeometry x="430" y="450" width="40" height="30" as="geometry" />
        </mxCell>
        <mxCell id="jXWk1P5DwBrlVbLdEill-16" value="" style="shape=partialRectangle;whiteSpace=wrap;html=1;bottom=1;right=1;left=1;top=0;fillColor=none;routingCenterX=-0.5;rotation=-180;" vertex="1" parent="1">
          <mxGeometry x="100" y="430" width="50" height="20" as="geometry" />
        </mxCell>
        <mxCell id="jXWk1P5DwBrlVbLdEill-17" value="" style="shape=partialRectangle;whiteSpace=wrap;html=1;bottom=1;right=1;left=1;top=0;fillColor=none;routingCenterX=-0.5;rotation=-180;" vertex="1" parent="1">
          <mxGeometry x="200" y="430" width="50" height="20" as="geometry" />
        </mxCell>
        <mxCell id="jXWk1P5DwBrlVbLdEill-18" value="" style="shape=partialRectangle;whiteSpace=wrap;html=1;bottom=1;right=1;left=1;top=0;fillColor=none;routingCenterX=-0.5;rotation=-180;" vertex="1" parent="1">
          <mxGeometry x="300" y="430" width="50" height="20" as="geometry" />
        </mxCell>
        <mxCell id="jXWk1P5DwBrlVbLdEill-19" value="" style="shape=partialRectangle;whiteSpace=wrap;html=1;bottom=1;right=1;left=1;top=0;fillColor=none;routingCenterX=-0.5;rotation=-180;" vertex="1" parent="1">
          <mxGeometry x="400" y="430" width="50" height="20" as="geometry" />
        </mxCell>
        <mxCell id="jXWk1P5DwBrlVbLdEill-21" value="" style="shape=partialRectangle;whiteSpace=wrap;html=1;bottom=1;right=1;left=1;top=0;fillColor=none;routingCenterX=-0.5;rotation=-180;" vertex="1" parent="1">
          <mxGeometry x="125" y="410" width="100" height="20" as="geometry" />
        </mxCell>
        <mxCell id="jXWk1P5DwBrlVbLdEill-22" value="" style="shape=partialRectangle;whiteSpace=wrap;html=1;bottom=1;right=1;left=1;top=0;fillColor=none;routingCenterX=-0.5;rotation=-180;" vertex="1" parent="1">
          <mxGeometry x="325" y="410" width="100" height="20" as="geometry" />
        </mxCell>
        <mxCell id="jXWk1P5DwBrlVbLdEill-23" value="" style="shape=partialRectangle;whiteSpace=wrap;html=1;bottom=1;right=1;left=1;top=0;fillColor=none;routingCenterX=-0.5;rotation=-180;" vertex="1" parent="1">
          <mxGeometry x="175" y="390" width="200" height="20" as="geometry" />
        </mxCell>
        <mxCell id="jXWk1P5DwBrlVbLdEill-24" value="3" style="text;html=1;align=center;verticalAlign=middle;whiteSpace=wrap;rounded=0;" vertex="1" parent="1">
          <mxGeometry x="80" y="480" width="40" height="20" as="geometry" />
        </mxCell>
        <mxCell id="jXWk1P5DwBrlVbLdEill-25" value="3" style="text;html=1;align=center;verticalAlign=middle;whiteSpace=wrap;rounded=0;" vertex="1" parent="1">
          <mxGeometry x="130" y="480" width="40" height="20" as="geometry" />
        </mxCell>
        <mxCell id="jXWk1P5DwBrlVbLdEill-26" value="2" style="text;html=1;align=center;verticalAlign=middle;whiteSpace=wrap;rounded=0;" vertex="1" parent="1">
          <mxGeometry x="180" y="480" width="40" height="20" as="geometry" />
        </mxCell>
        <mxCell id="jXWk1P5DwBrlVbLdEill-27" value="3" style="text;html=1;align=center;verticalAlign=middle;whiteSpace=wrap;rounded=0;" vertex="1" parent="1">
          <mxGeometry x="280" y="480" width="40" height="20" as="geometry" />
        </mxCell>
        <mxCell id="jXWk1P5DwBrlVbLdEill-28" value="3" style="text;html=1;align=center;verticalAlign=middle;whiteSpace=wrap;rounded=0;" vertex="1" parent="1">
          <mxGeometry x="330" y="480" width="40" height="20" as="geometry" />
        </mxCell>
        <mxCell id="jXWk1P5DwBrlVbLdEill-29" value="2" style="text;html=1;align=center;verticalAlign=middle;whiteSpace=wrap;rounded=0;" vertex="1" parent="1">
          <mxGeometry x="380" y="480" width="40" height="20" as="geometry" />
        </mxCell>
        <mxCell id="jXWk1P5DwBrlVbLdEill-30" value="#" style="rounded=1;whiteSpace=wrap;html=1;" vertex="1" parent="1">
          <mxGeometry x="500" y="450" width="40" height="30" as="geometry" />
        </mxCell>
        <mxCell id="jXWk1P5DwBrlVbLdEill-31" value="#" style="rounded=1;whiteSpace=wrap;html=1;" vertex="1" parent="1">
          <mxGeometry x="550" y="450" width="40" height="30" as="geometry" />
        </mxCell>
        <mxCell id="jXWk1P5DwBrlVbLdEill-32" value="#" style="rounded=1;whiteSpace=wrap;html=1;" vertex="1" parent="1">
          <mxGeometry x="600" y="450" width="40" height="30" as="geometry" />
        </mxCell>
        <mxCell id="jXWk1P5DwBrlVbLdEill-33" value="#" style="rounded=1;whiteSpace=wrap;html=1;" vertex="1" parent="1">
          <mxGeometry x="650" y="450" width="40" height="30" as="geometry" />
        </mxCell>
        <mxCell id="jXWk1P5DwBrlVbLdEill-34" value="#" style="rounded=1;whiteSpace=wrap;html=1;" vertex="1" parent="1">
          <mxGeometry x="700" y="450" width="40" height="30" as="geometry" />
        </mxCell>
        <mxCell id="jXWk1P5DwBrlVbLdEill-35" value="#" style="rounded=1;whiteSpace=wrap;html=1;" vertex="1" parent="1">
          <mxGeometry x="750" y="450" width="40" height="30" as="geometry" />
        </mxCell>
        <mxCell id="jXWk1P5DwBrlVbLdEill-36" value="." style="rounded=1;whiteSpace=wrap;html=1;" vertex="1" parent="1">
          <mxGeometry x="800" y="450" width="40" height="30" as="geometry" />
        </mxCell>
        <mxCell id="jXWk1P5DwBrlVbLdEill-37" value="." style="rounded=1;whiteSpace=wrap;html=1;" vertex="1" parent="1">
          <mxGeometry x="850" y="450" width="40" height="30" as="geometry" />
        </mxCell>
        <mxCell id="jXWk1P5DwBrlVbLdEill-38" value="" style="shape=partialRectangle;whiteSpace=wrap;html=1;bottom=1;right=1;left=1;top=0;fillColor=none;routingCenterX=-0.5;rotation=-180;" vertex="1" parent="1">
          <mxGeometry x="520" y="430" width="50" height="20" as="geometry" />
        </mxCell>
        <mxCell id="jXWk1P5DwBrlVbLdEill-39" value="" style="shape=partialRectangle;whiteSpace=wrap;html=1;bottom=1;right=1;left=1;top=0;fillColor=none;routingCenterX=-0.5;rotation=-180;" vertex="1" parent="1">
          <mxGeometry x="620" y="430" width="50" height="20" as="geometry" />
        </mxCell>
        <mxCell id="jXWk1P5DwBrlVbLdEill-40" value="" style="shape=partialRectangle;whiteSpace=wrap;html=1;bottom=1;right=1;left=1;top=0;fillColor=none;routingCenterX=-0.5;rotation=-180;" vertex="1" parent="1">
          <mxGeometry x="720" y="430" width="50" height="20" as="geometry" />
        </mxCell>
        <mxCell id="jXWk1P5DwBrlVbLdEill-41" value="" style="shape=partialRectangle;whiteSpace=wrap;html=1;bottom=1;right=1;left=1;top=0;fillColor=none;routingCenterX=-0.5;rotation=-180;" vertex="1" parent="1">
          <mxGeometry x="820" y="430" width="50" height="20" as="geometry" />
        </mxCell>
        <mxCell id="jXWk1P5DwBrlVbLdEill-42" value="" style="shape=partialRectangle;whiteSpace=wrap;html=1;bottom=1;right=1;left=1;top=0;fillColor=none;routingCenterX=-0.5;rotation=-180;" vertex="1" parent="1">
          <mxGeometry x="545" y="410" width="100" height="20" as="geometry" />
        </mxCell>
        <mxCell id="jXWk1P5DwBrlVbLdEill-43" value="" style="shape=partialRectangle;whiteSpace=wrap;html=1;bottom=1;right=1;left=1;top=0;fillColor=none;routingCenterX=-0.5;rotation=-180;" vertex="1" parent="1">
          <mxGeometry x="745" y="410" width="100" height="20" as="geometry" />
        </mxCell>
        <mxCell id="jXWk1P5DwBrlVbLdEill-44" value="" style="shape=partialRectangle;whiteSpace=wrap;html=1;bottom=1;right=1;left=1;top=0;fillColor=none;routingCenterX=-0.5;rotation=-180;" vertex="1" parent="1">
          <mxGeometry x="595" y="390" width="200" height="20" as="geometry" />
        </mxCell>
        <mxCell id="jXWk1P5DwBrlVbLdEill-45" value="3" style="text;html=1;align=center;verticalAlign=middle;whiteSpace=wrap;rounded=0;" vertex="1" parent="1">
          <mxGeometry x="500" y="480" width="40" height="20" as="geometry" />
        </mxCell>
        <mxCell id="jXWk1P5DwBrlVbLdEill-46" value="3" style="text;html=1;align=center;verticalAlign=middle;whiteSpace=wrap;rounded=0;" vertex="1" parent="1">
          <mxGeometry x="550" y="480" width="40" height="20" as="geometry" />
        </mxCell>
        <mxCell id="jXWk1P5DwBrlVbLdEill-47" value="3" style="text;html=1;align=center;verticalAlign=middle;whiteSpace=wrap;rounded=0;" vertex="1" parent="1">
          <mxGeometry x="600" y="480" width="40" height="20" as="geometry" />
        </mxCell>
        <mxCell id="jXWk1P5DwBrlVbLdEill-48" value="2" style="text;html=1;align=center;verticalAlign=middle;whiteSpace=wrap;rounded=0;" vertex="1" parent="1">
          <mxGeometry x="700" y="480" width="40" height="20" as="geometry" />
        </mxCell>
        <mxCell id="jXWk1P5DwBrlVbLdEill-49" value="2" style="text;html=1;align=center;verticalAlign=middle;whiteSpace=wrap;rounded=0;" vertex="1" parent="1">
          <mxGeometry x="750" y="480" width="40" height="20" as="geometry" />
        </mxCell>
        <mxCell id="jXWk1P5DwBrlVbLdEill-53" value="3" style="text;html=1;align=center;verticalAlign=middle;whiteSpace=wrap;rounded=0;" vertex="1" parent="1">
          <mxGeometry x="650" y="480" width="40" height="20" as="geometry" />
        </mxCell>
        <mxCell id="jXWk1P5DwBrlVbLdEill-54" value="&quot;###.###.&quot;" style="text;html=1;align=center;verticalAlign=middle;whiteSpace=wrap;rounded=0;fontSize=18;fontColor=#0000FF;" vertex="1" parent="1">
          <mxGeometry x="160" y="340" width="240" height="30" as="geometry" />
        </mxCell>
        <mxCell id="jXWk1P5DwBrlVbLdEill-55" value="&quot;######..&quot;" style="text;html=1;align=center;verticalAlign=middle;whiteSpace=wrap;rounded=0;fontSize=18;fontColor=#0000FF;" vertex="1" parent="1">
          <mxGeometry x="580" y="340" width="240" height="30" as="geometry" />
        </mxCell>
      </root>
    </mxGraphModel>
  </diagram>
</mxfile>
